<svg width="241" height="275" viewBox="0 0 241 275" fill="none" xmlns="http://www.w3.org/2000/svg">
<mask id="path-1-inside-1_1_15" fill="white">
<path fill-rule="evenodd" clip-rule="evenodd" d="M20 0C8.95431 0 0 8.9543 0 20V235.588C0 246.634 8.9543 255.588 20 255.588H29.8408L43.5 275L57.1592 255.588H221C232.046 255.588 241 246.634 241 235.588V20C241 8.95431 232.046 0 221 0H20Z"/>
</mask>
<path fill-rule="evenodd" clip-rule="evenodd" d="M20 0C8.95431 0 0 8.9543 0 20V235.588C0 246.634 8.9543 255.588 20 255.588H29.8408L43.5 275L57.1592 255.588H221C232.046 255.588 241 246.634 241 235.588V20C241 8.95431 232.046 0 221 0H20Z" fill="#010101"/>
<path d="M29.8408 255.588L31.0675 254.725L30.6194 254.088H29.8408V255.588ZM43.5 275L42.2733 275.863L43.5 277.607L44.7267 275.863L43.5 275ZM57.1592 255.588V254.088H56.3806L55.9325 254.725L57.1592 255.588ZM1.5 20C1.5 9.78273 9.78273 1.5 20 1.5V-1.5C8.12588 -1.5 -1.5 8.12588 -1.5 20H1.5ZM1.5 235.588V20H-1.5V235.588H1.5ZM20 254.088C9.78273 254.088 1.5 245.805 1.5 235.588H-1.5C-1.5 247.462 8.12588 257.088 20 257.088V254.088ZM29.8408 254.088H20V257.088H29.8408V254.088ZM44.7267 274.137L31.0675 254.725L28.614 256.451L42.2733 275.863L44.7267 274.137ZM55.9325 254.725L42.2733 274.137L44.7267 275.863L58.386 256.451L55.9325 254.725ZM221 254.088H57.1592V257.088H221V254.088ZM239.5 235.588C239.5 245.805 231.217 254.088 221 254.088V257.088C232.874 257.088 242.5 247.462 242.5 235.588H239.5ZM239.5 20V235.588H242.5V20H239.5ZM221 1.5C231.217 1.5 239.5 9.78273 239.5 20H242.5C242.5 8.12588 232.874 -1.5 221 -1.5V1.5ZM20 1.5H221V-1.5H20V1.5Z" fill="#34C759" mask="url(#path-1-inside-1_1_15)"/>
</svg>
